# xmcd
#
# Track frame offsets:
#	150
#	14326
#	29377
#	44078
#	61780
#	74976
#	96853
#	120217
#	135480
#	151609
#	173411
#	192966
#	215925
#	230261
#
# Disc length: 3367 seconds
#
# Revision: 1
# Processed by: cddbd v1.5.2PL0 Copyright (c) Steve Scherf et al.
# Submitted via: audiograbber 1.83.01
#
DISCID=bc0d250e
DTITLE=The Orbitsuns - The Orbitsuns
DYEAR=2002
DGENRE=Trailer
TTITLE0=Sad Sad Situation
TTITLE1=Maria
TTITLE2=Once in a Blue Moon
TTITLE3=Knocking on the Door
TTITLE4=Sound of a Desperate Man
TTITLE5=Haul Ass
TTITLE6=Mistrusted
TTITLE7=Looking for Life
TTITLE8=I'm Leaving You
TTITLE9=What Road Are You On?
TTITLE10=How Much Do You Think of Love?
TTITLE11=Hard Part of Town
TTITLE12=Devil at the Wheel
TTITLE13=Devil at the Wheel (Reprise)
EXTD=
EXTT0=
EXTT1=
EXTT2=
EXTT3=
EXTT4=
EXTT5=
EXTT6=
EXTT7=
EXTT8=
EXTT9=
EXTT10=
EXTT11=
EXTT12=
EXTT13=
PLAYORDER=
